<svg width="94" height="105" viewBox="0 0 94 105" fill="none" xmlns="http://www.w3.org/2000/svg">
<g filter="url(#filter0_d_3_584)">
<path fill-rule="evenodd" clip-rule="evenodd" d="M65.422 68.4271L40.48 75.8631C40.3063 75.9158 40.1218 75.9225 39.9446 75.8826C39.7675 75.8427 39.6037 75.7576 39.4693 75.6354C39.3349 75.5133 39.2345 75.3585 39.1778 75.1859C39.1212 75.0134 39.1102 74.8292 39.146 74.6511L48.058 31.6291C48.0957 31.4534 48.1875 31.2939 48.3205 31.173C48.4536 31.0521 48.6211 30.976 48.7996 30.9552C48.9782 30.9345 49.1587 30.9702 49.3159 31.0574C49.4731 31.1445 49.599 31.2787 49.676 31.4411L66.174 66.7631C66.248 66.9202 66.287 67.0914 66.2884 67.265C66.2897 67.4386 66.2534 67.6104 66.1819 67.7686C66.1104 67.9268 66.0055 68.0676 65.8743 68.1813C65.7431 68.295 65.5888 68.3789 65.422 68.4271ZM69.7 66.6711L50.602 25.7731C50.3673 25.2687 49.9995 24.8377 49.5383 24.5266C49.077 24.2154 48.5397 24.0359 47.984 24.0071C47.4283 23.9689 46.8729 24.0848 46.3788 24.3421C45.8848 24.5993 45.4713 24.9879 45.184 25.4651L24.474 59.3031C24.1581 59.8153 23.9938 60.4066 24.0002 61.0083C24.0066 61.6101 24.1833 62.1977 24.51 62.7031L34.638 78.5211C35.0197 79.1123 35.5825 79.5639 36.2423 79.8083C36.9021 80.0528 37.6234 80.0769 38.298 79.8771L67.698 71.1111C68.1421 70.9818 68.5528 70.7577 68.9019 70.4544C69.251 70.1511 69.5303 69.7757 69.7203 69.3541C69.9104 68.9324 70.0069 68.4746 70.003 68.0121C69.9992 67.5497 69.8951 67.0935 69.698 66.6751L69.7 66.6711Z" fill="#D2D2D2"/>
</g>
<defs>
<filter id="filter0_d_3_584" x="0" y="0" width="94.0031" height="104.011" filterUnits="userSpaceOnUse" color-interpolation-filters="sRGB">
<feFlood flood-opacity="0" result="BackgroundImageFix"/>
<feColorMatrix in="SourceAlpha" type="matrix" values="0 0 0 0 0 0 0 0 0 0 0 0 0 0 0 0 0 0 127 0" result="hardAlpha"/>
<feOffset/>
<feGaussianBlur stdDeviation="12"/>
<feComposite in2="hardAlpha" operator="out"/>
<feColorMatrix type="matrix" values="0 0 0 0 0.823529 0 0 0 0 0.823529 0 0 0 0 0.823529 0 0 0 0.3 0"/>
<feBlend mode="normal" in2="BackgroundImageFix" result="effect1_dropShadow_3_584"/>
<feBlend mode="normal" in="SourceGraphic" in2="effect1_dropShadow_3_584" result="shape"/>
</filter>
</defs>
</svg>
