<svg width="112" height="112" viewBox="0 0 112 112" fill="none" xmlns="http://www.w3.org/2000/svg">
<path d="M81.75 24H30.25C26.7982 24 24 26.7982 24 30.25V81.75C24 85.2018 26.7982 88 30.25 88H81.75C85.2018 88 88 85.2018 88 81.75V30.25C88 26.7982 85.2018 24 81.75 24Z" fill="#3178C6"/>
<g filter="url(#filter0_d_3_575)">
<path d="M81.75 24H30.25C26.7982 24 24 26.7982 24 30.25V81.75C24 85.2018 26.7982 88 30.25 88H81.75C85.2018 88 88 85.2018 88 81.75V30.25C88 26.7982 85.2018 24 81.75 24Z" fill="#3178C6"/>
</g>
<path fill-rule="evenodd" clip-rule="evenodd" d="M63.6174 74.928V81.1856C64.6346 81.7071 65.8377 82.0981 67.2267 82.3589C68.6157 82.6196 70.0796 82.75 71.6186 82.75C73.1185 82.75 74.5432 82.6066 75.8931 82.3198C77.243 82.033 78.4266 81.5604 79.4439 80.902C80.4611 80.2437 81.2665 79.3833 81.8599 78.3208C82.4533 77.2583 82.75 75.9449 82.75 74.3805C82.75 73.2463 82.5805 72.2523 82.2414 71.3984C81.9022 70.5445 81.4132 69.7851 80.7741 69.1203C80.1351 68.4554 79.3689 67.8589 78.4755 67.3309C77.5821 66.8029 76.5746 66.3042 75.453 65.835C74.6314 65.496 73.8945 65.1669 73.2424 64.8475C72.5902 64.528 72.036 64.2021 71.5795 63.8698C71.123 63.5373 70.7709 63.1853 70.5231 62.8138C70.2754 62.4421 70.1514 62.0218 70.1514 61.5524C70.1514 61.1223 70.2623 60.7344 70.484 60.3889C70.7058 60.0434 71.0187 59.7469 71.423 59.4991C71.8274 59.2515 72.3229 59.0591 72.9098 58.9222C73.4968 58.7854 74.1487 58.717 74.8661 58.717C75.3877 58.717 75.9388 58.7561 76.5191 58.8343C77.0995 58.9125 77.6831 59.0331 78.2701 59.196C78.857 59.359 79.4275 59.5644 79.9819 59.812C80.5361 60.0598 81.048 60.3465 81.5175 60.6725V54.8255C80.5655 54.4605 79.5254 54.19 78.3973 54.014C77.2691 53.838 75.9746 53.75 74.514 53.75C73.0271 53.75 71.6186 53.9097 70.2884 54.2291C68.9581 54.5485 67.7876 55.0471 66.7767 55.725C65.766 56.403 64.9673 57.2666 64.3804 58.3161C63.7935 59.3655 63.5 60.6203 63.5 62.0804C63.5 63.9446 64.038 65.5351 65.114 66.8519C66.1899 68.1685 67.8234 69.2831 70.0145 70.1958C70.8752 70.5478 71.6774 70.8931 72.4207 71.2321C73.1641 71.5711 73.8065 71.9231 74.3476 72.2881C74.8889 72.6531 75.316 73.0507 75.6291 73.481C75.9421 73.9111 76.0986 74.4 76.0986 74.9476C76.0986 75.3517 76.0008 75.7265 75.8051 76.072C75.6095 76.4175 75.3128 76.7173 74.915 76.9715C74.5173 77.2257 74.0216 77.4245 73.4282 77.5679C72.8348 77.7114 72.1404 77.783 71.3447 77.783C69.9884 77.783 68.6451 77.5451 67.3148 77.0692C65.9845 76.5935 64.752 75.8798 63.6174 74.928ZM53.0975 59.5103H61.125V54.375H38.75V59.5103H46.7383V82.375H53.0975V59.5103Z" fill="white"/>
<defs>
<filter id="filter0_d_3_575" x="0" y="0" width="112" height="112" filterUnits="userSpaceOnUse" color-interpolation-filters="sRGB">
<feFlood flood-opacity="0" result="BackgroundImageFix"/>
<feColorMatrix in="SourceAlpha" type="matrix" values="0 0 0 0 0 0 0 0 0 0 0 0 0 0 0 0 0 0 127 0" result="hardAlpha"/>
<feOffset/>
<feGaussianBlur stdDeviation="12"/>
<feComposite in2="hardAlpha" operator="out"/>
<feColorMatrix type="matrix" values="0 0 0 0 0.192157 0 0 0 0 0.470588 0 0 0 0 0.776471 0 0 0 0.3 0"/>
<feBlend mode="normal" in2="BackgroundImageFix" result="effect1_dropShadow_3_575"/>
<feBlend mode="normal" in="SourceGraphic" in2="effect1_dropShadow_3_575" result="shape"/>
</filter>
</defs>
</svg>
