<svg width="112" height="112" viewBox="0 0 112 112" fill="none" xmlns="http://www.w3.org/2000/svg">
<g filter="url(#filter0_d_3_553)">
<path fill-rule="evenodd" clip-rule="evenodd" d="M61.6839 24C61.2211 24 60.7914 24.0996 60.3947 24.2323C61.2377 24.7965 61.7005 25.5432 61.9319 26.3894C61.9484 26.5056 61.9814 26.5885 61.998 26.7047C62.0146 26.8042 62.031 26.9038 62.031 27.0034C62.0972 28.4636 61.6509 28.6461 61.3368 29.5089C60.8575 30.6207 60.9897 31.8154 61.5682 32.7778C61.6178 32.8939 61.6839 33.0267 61.7666 33.1428C61.1385 28.9448 64.6259 28.3142 65.2705 27.0034C65.3201 25.8584 64.378 25.0951 63.6343 24.5642C62.9235 24.1327 62.2789 24 61.6839 24ZM66.9399 24.9458C66.8737 25.3275 66.9233 25.2279 66.9068 25.427C66.8903 25.5598 66.8903 25.7257 66.8738 25.8584C66.8408 25.9912 66.8077 26.1239 66.7581 26.2567C66.7251 26.3894 66.6755 26.5222 66.6259 26.6549C66.5597 26.7877 66.5102 26.9038 66.4441 27.0366C66.3945 27.103 66.3614 27.1693 66.3119 27.2357C66.2788 27.2854 66.2457 27.3352 66.2127 27.385C66.1301 27.5012 66.0474 27.6173 65.9648 27.7169C65.8656 27.8164 65.783 27.9326 65.6673 28.0156V28.0322C65.5681 28.1151 65.4689 28.2147 65.3532 28.2977C65.0061 28.5631 64.6095 28.7623 64.2458 29.0112C64.1301 29.0941 64.0144 29.1605 63.9153 29.2601C63.7996 29.343 63.7004 29.426 63.6012 29.5255C63.4855 29.6251 63.4029 29.7247 63.3037 29.8408C63.2211 29.9404 63.1219 30.0565 63.0558 30.1727C62.9732 30.2888 62.8905 30.405 62.8244 30.5211C62.7583 30.6539 62.7087 30.77 62.6426 30.9028C62.593 31.0355 62.5434 31.1517 62.5104 31.2844C62.4608 31.4338 62.4277 31.5665 62.3947 31.6993C62.3781 31.7657 62.3781 31.8486 62.3617 31.915C62.3451 31.9814 62.3451 32.0477 62.3286 32.1141C62.3286 32.2468 62.3121 32.3962 62.3121 32.5289C62.3121 32.6285 62.3121 32.728 62.3286 32.8276C62.3286 32.9603 62.3452 33.0931 62.3782 33.2424C62.3948 33.3752 62.4278 33.5079 62.4609 33.6407C62.5104 33.7734 62.5435 33.9061 62.5931 34.0389C62.6261 34.1219 62.6757 34.2048 62.7088 34.2712L58.9073 32.7944C58.2627 32.6119 57.6347 32.446 56.9901 32.2966C56.643 32.2136 56.2959 32.1307 55.9488 32.0477C54.9571 31.8486 53.9489 31.6993 52.9407 31.5997C52.9076 31.5997 52.8911 31.5831 52.858 31.5831C51.8663 31.4835 50.8912 31.4337 49.8995 31.4337C49.1723 31.4337 48.445 31.4669 47.7343 31.5167C46.7261 31.5831 45.7179 31.7158 44.7097 31.8818C44.4618 31.9149 44.2138 31.9647 43.9659 32.0145C43.4535 32.1141 42.9577 32.2302 42.4784 32.3464C42.2305 32.4128 41.9825 32.4791 41.7346 32.5455C41.4867 32.645 41.2553 32.7612 41.0239 32.8608C40.8421 32.9437 40.6603 33.0267 40.4785 33.1097C40.4455 33.1263 40.4123 33.1263 40.3958 33.1428C40.2306 33.2258 40.0818 33.2921 39.9331 33.3751C39.8835 33.3917 39.8504 33.4083 39.8174 33.4249C39.6356 33.5079 39.4537 33.6074 39.305 33.6904C39.1893 33.7402 39.0736 33.8065 38.9744 33.8563C38.9248 33.8895 38.8587 33.9227 38.8257 33.9393C38.6769 34.0223 38.5282 34.1052 38.3959 34.1882C38.2472 34.2712 38.115 34.3541 37.9993 34.4371C37.8836 34.5201 37.7679 34.5864 37.6687 34.6694C37.6521 34.686 37.6357 34.686 37.6191 34.7025C37.52 34.7689 37.4043 34.8519 37.3051 34.9349C37.3051 34.9349 37.2885 34.9515 37.2721 34.968C37.1894 35.0344 37.1068 35.1008 37.0241 35.1671C36.9911 35.1837 36.958 35.2169 36.925 35.2335C36.8423 35.2999 36.7597 35.3829 36.6771 35.4492C36.6605 35.4824 36.6275 35.499 36.6109 35.5156C36.5117 35.6152 36.4126 35.6982 36.3134 35.7977C36.2969 35.7977 36.2969 35.8143 36.2804 35.8309C36.1812 35.9139 36.082 36.0134 35.9829 36.113C35.9663 36.1296 35.9663 36.1461 35.9498 36.1461C35.8672 36.2291 35.7846 36.3121 35.7019 36.4116C35.6689 36.4448 35.6193 36.478 35.5862 36.5112C35.5036 36.6107 35.4044 36.7103 35.3052 36.8099C35.2887 36.843 35.2557 36.8596 35.2391 36.8928C35.1069 37.0256 34.9912 37.1583 34.859 37.2911C34.8424 37.3077 34.8259 37.3242 34.8094 37.3408C34.5449 37.6229 34.2639 37.905 33.9664 38.1539C33.6689 38.4194 33.3549 38.6683 33.0409 38.884C32.7103 39.1163 32.3963 39.3154 32.0492 39.5145C31.7186 39.6971 31.3715 39.863 31.0079 40.0123C30.6608 40.1617 30.2972 40.2944 29.9336 40.4106C29.2394 40.5599 28.5287 40.842 27.9172 40.8918C27.7849 40.8918 27.6362 40.9249 27.504 40.9416C27.3552 40.9747 27.223 41.008 27.0908 41.0411C26.9585 41.0909 26.8263 41.1407 26.6941 41.1904C26.5619 41.2402 26.4296 41.3066 26.2974 41.373C26.1817 41.4559 26.0495 41.5223 25.9338 41.6053C25.8181 41.6882 25.7024 41.7878 25.6032 41.8874C25.4875 41.9703 25.3718 42.0865 25.2727 42.186C25.1735 42.3022 25.0743 42.4018 24.9917 42.5179C24.909 42.6506 24.8099 42.7668 24.7438 42.8995C24.6611 43.0157 24.5785 43.1484 24.5124 43.2812C24.4462 43.4305 24.3801 43.5633 24.3306 43.7126C24.281 43.8454 24.2314 43.9947 24.1818 44.144C24.1488 44.2768 24.1157 44.4095 24.0992 44.5423C24.0992 44.5589 24.0826 44.5754 24.0826 44.592C24.0496 44.7414 24.0496 44.9405 24.033 45.0401C24.0165 45.1562 24 45.2558 24 45.3719C24 45.4383 24 45.5213 24.0166 45.5876C24.0331 45.7038 24.0496 45.8034 24.0827 45.9029C24.1157 46.0025 24.1488 46.102 24.1984 46.2016V46.2182C24.248 46.3178 24.3141 46.4173 24.3802 46.5169C24.4463 46.6164 24.5124 46.716 24.5951 46.8156C24.6777 46.8985 24.7769 46.9981 24.876 47.0811C24.9752 47.1806 25.0744 47.2636 25.1901 47.3465C25.5867 47.695 25.6859 47.8112 26.1983 48.0766C26.2809 48.1264 26.3636 48.1596 26.4627 48.2094C26.4793 48.2094 26.4958 48.226 26.5123 48.226C26.5123 48.2592 26.5123 48.2758 26.5289 48.309C26.5454 48.4417 26.5785 48.5745 26.6115 48.7072C26.6445 48.8566 26.6942 48.9893 26.7438 49.1055C26.7933 49.205 26.8264 49.3046 26.876 49.4041C26.8925 49.4373 26.909 49.4705 26.9256 49.4871C26.9917 49.6198 27.0578 49.736 27.1239 49.8521C27.2065 49.9683 27.2892 50.0844 27.3718 50.2006C27.4545 50.3002 27.5536 50.4163 27.6528 50.5159C27.752 50.6154 27.8511 50.6984 27.9668 50.798C27.9668 50.798 27.9834 50.8146 27.9999 50.8146C28.099 50.8976 28.1982 50.9805 28.2974 51.0469C28.4131 51.1299 28.5288 51.1962 28.661 51.2626C28.7767 51.329 28.9089 51.3953 29.0411 51.4451C29.1403 51.4949 29.256 51.5281 29.3717 51.5613C29.3882 51.5779 29.4047 51.5779 29.4378 51.5945C29.504 51.6111 29.5866 51.6276 29.6527 51.6442C29.6031 52.5403 29.5866 53.3865 29.7188 53.6852C29.8676 54.017 30.5948 53.0049 31.3221 51.8433C31.2229 52.9883 31.1568 54.3323 31.3221 54.7306C31.5039 55.1454 32.4955 53.8511 33.355 52.4241C45.0734 49.7028 55.7671 57.8335 56.891 69.316C56.6762 67.5239 54.4779 66.5283 53.4697 66.7772C52.9739 68.0051 52.1309 69.5814 50.7756 70.5604C50.8913 69.4653 50.8418 68.337 50.6104 67.2418C50.2467 68.7684 49.536 70.1954 48.5609 71.4233C46.9907 71.5394 45.4205 70.7761 44.5941 69.6312C44.528 69.5814 44.5115 69.4819 44.4619 69.4155C44.4123 69.2994 44.3627 69.1832 44.3297 69.0671C44.2801 68.9509 44.247 68.8347 44.2305 68.7186C44.2139 68.6024 44.2139 68.4863 44.2139 68.3535C44.2139 68.2706 44.2139 68.1876 44.2139 68.1047C44.2305 67.9885 44.2635 67.8723 44.2966 67.7562C44.3296 67.64 44.3627 67.5239 44.4123 67.4077C44.4784 67.2916 44.528 67.1754 44.6106 67.0593C44.8916 66.2628 44.8916 65.6157 44.3792 65.234C44.2801 65.1676 44.1809 65.1179 44.0652 65.0681C43.999 65.0515 43.9164 65.0183 43.8503 65.0017C43.8007 64.9851 43.7677 64.9685 43.7181 64.9519C43.6024 64.9188 43.4867 64.8855 43.371 64.869C43.2553 64.8358 43.1396 64.8192 43.0239 64.8192C42.9082 64.8025 42.776 64.786 42.6603 64.786C42.5777 64.786 42.495 64.8026 42.4124 64.8026C42.2802 64.8026 42.1645 64.8193 42.0488 64.8524C41.9331 64.869 41.8174 64.8856 41.7017 64.9188C41.586 64.952 41.4703 64.9852 41.3546 65.035C41.2389 65.0847 41.1397 65.1345 41.024 65.1843C40.9249 65.2341 40.8257 65.3004 40.71 65.3502C36.8589 67.8724 39.1563 73.7796 41.7843 75.4887C40.7926 75.6712 39.7844 75.8869 39.5034 76.1026C39.4869 76.1192 39.4704 76.1358 39.4704 76.1358C40.1811 76.5672 40.9249 76.9322 41.7017 77.2475C42.7595 77.596 43.8834 77.9112 44.3792 78.044V78.0606C45.7511 78.3427 47.1394 78.4422 48.5443 78.3593C55.8663 77.8449 61.866 72.253 62.9568 64.8856C62.9899 65.035 63.023 65.1677 63.056 65.317C63.1056 65.6157 63.1717 65.931 63.2047 66.2463V66.2629C63.2378 66.4122 63.2543 66.5616 63.2709 66.6943V66.7607C63.2875 66.91 63.3039 67.0594 63.3039 67.1921C63.3205 67.3747 63.337 67.5572 63.337 67.7397V68.0052C63.337 68.0882 63.3535 68.1877 63.3535 68.2707C63.3535 68.3703 63.337 68.4698 63.337 68.5694V68.8017C63.337 68.9178 63.3204 69.0174 63.3204 69.1335C63.3204 69.1999 63.3204 69.2663 63.3038 69.3492C63.3038 69.4654 63.2873 69.5816 63.2873 69.7143C63.2707 69.7641 63.2707 69.8139 63.2707 69.8636C63.2542 69.9964 63.2377 70.1125 63.2211 70.2453C63.2211 70.2951 63.2211 70.3448 63.2046 70.3946C63.188 70.5606 63.155 70.7099 63.1384 70.8758V70.8925V70.9091C63.1054 71.0584 63.0723 71.2243 63.0393 71.3737V71.4235C63.0062 71.5728 62.9731 71.7221 62.9401 71.8715C62.9401 71.8881 62.9235 71.9213 62.9235 71.9379C62.8905 72.0872 62.8574 72.2365 62.8079 72.3859V72.4357C62.7583 72.6016 62.7087 72.7509 62.6756 72.9003C62.6591 72.9169 62.6591 72.9334 62.6591 72.9334C62.6095 73.0994 62.5599 73.2653 62.5103 73.4312C62.4442 73.5972 62.3946 73.7465 62.3285 73.9124C62.2624 74.0784 62.2128 74.2443 62.1467 74.3936C62.0806 74.5596 62.0145 74.7089 61.9484 74.8748H61.9318C61.8657 75.0242 61.7996 75.1901 61.7169 75.3395C61.7004 75.3892 61.6839 75.4224 61.6673 75.4556C61.6508 75.4722 61.6508 75.4888 61.6343 75.5054C60.56 77.6791 58.9733 79.5873 56.9899 81.0807C56.8577 81.1637 56.7255 81.2632 56.5933 81.3628C56.5602 81.3959 56.5106 81.4125 56.4776 81.4457C56.3619 81.5287 56.2462 81.6117 56.1139 81.6946L56.1635 81.7942H56.1801C56.4115 81.761 56.6428 81.7278 56.8742 81.6946H56.8908C57.3205 81.6282 57.7503 81.5453 58.18 81.4623C58.2957 81.4457 58.4279 81.4125 58.5436 81.3794C58.6262 81.3627 58.6924 81.3462 58.775 81.3296C58.8907 81.3129 59.0064 81.2798 59.1221 81.2632C59.2213 81.23 59.3204 81.2134 59.4196 81.1802C61.0724 80.782 62.6756 80.2344 64.2127 79.5873C61.5848 83.188 58.0643 86.0918 53.9488 88C55.8495 87.8673 57.7503 87.552 59.5849 87.021C66.2457 85.0464 71.8487 80.5497 75.2039 74.4932C74.5263 78.3262 73.0057 81.9767 70.7579 85.1626C72.3611 84.1006 73.8321 82.8727 75.1709 81.4789C78.8732 77.5961 81.3028 72.6679 82.1292 67.3747C82.6912 69.9964 82.8564 72.7011 82.6085 75.3726C94.5418 58.6633 83.6002 41.34 79.0219 36.7769C79.0053 36.7437 78.9889 36.7271 78.9889 36.6939C78.9723 36.7105 78.9723 36.7105 78.9723 36.7271C78.9723 36.7105 78.9723 36.7105 78.9558 36.6939C78.9558 36.893 78.9392 37.0922 78.9227 37.2913C78.8731 37.6729 78.8236 38.038 78.7575 38.403C78.6748 38.7681 78.5756 39.1331 78.4765 39.4982C78.3608 39.8466 78.2286 40.2117 78.0798 40.5601C77.931 40.892 77.7658 41.2404 77.584 41.5723C77.4021 41.8876 77.2038 42.2194 76.9889 42.5181C76.7741 42.8334 76.5427 43.1321 76.3113 43.4141C76.0634 43.7128 75.7989 43.9783 75.5345 44.2438C75.3692 44.3932 75.2204 44.5259 75.0552 44.6586C74.9229 44.7748 74.8072 44.8744 74.675 44.9905C74.3775 45.2228 74.08 45.4385 73.7494 45.6376C73.4354 45.8368 73.1049 46.0359 72.7743 46.2018C72.4272 46.3677 72.0801 46.5171 71.733 46.6664C71.3859 46.7992 71.0223 46.9153 70.6587 47.0149C70.2951 47.1144 69.9149 47.1974 69.5513 47.2638C69.1712 47.3302 68.791 47.3633 68.4274 47.3965C68.1629 47.4131 67.8985 47.4297 67.634 47.4297C67.2539 47.4297 66.8738 47.3965 66.5101 47.3633C66.13 47.3301 65.7498 47.2803 65.3862 47.1973C65.0061 47.1309 64.6425 47.0314 64.2788 46.9153H64.2623C64.6259 46.8821 64.9895 46.8489 65.3531 46.7825C65.7333 46.7161 66.0969 46.6332 66.4605 46.5336C66.8241 46.4341 67.1878 46.3179 67.5349 46.1852C67.8985 46.0524 68.2456 45.8865 68.5761 45.7205C68.9232 45.5546 69.2373 45.3721 69.5678 45.173C69.8818 44.9573 70.1959 44.7416 70.4934 44.5092C70.7909 44.2769 71.0719 44.0281 71.3363 43.7626C71.6173 43.5137 71.8652 43.2316 72.1131 42.9495C72.3611 42.6508 72.5925 42.3521 72.8073 42.0535C72.8404 42.0037 72.8735 41.9373 72.9065 41.8875C73.0718 41.622 73.237 41.3565 73.3858 41.0911C73.5676 40.7592 73.7329 40.4273 73.8816 40.0789C74.0304 39.7304 74.1626 39.382 74.2783 39.0169C74.394 38.6684 74.4767 38.3034 74.5593 37.9384C74.6254 37.5567 74.6915 37.1917 74.7246 36.8266C74.7576 36.445 74.7907 36.0633 74.7907 35.6983C74.7907 35.4328 74.7741 35.1673 74.7577 34.9018C74.7247 34.5202 74.675 34.1551 74.6255 33.7901C74.5593 33.4084 74.4767 33.0434 74.3775 32.6783C74.2618 32.3299 74.1461 31.9648 74.0139 31.6164C73.8817 31.2679 73.7164 30.9194 73.5511 30.5876C73.3693 30.2557 73.1875 29.9239 72.9892 29.6086C72.7743 29.2933 72.5594 28.9946 72.3281 28.696C72.0801 28.4139 71.8322 28.1318 71.5678 27.8497C71.4355 27.717 71.2868 27.5676 71.138 27.4349C70.3943 26.8541 69.6174 26.3065 68.8406 25.8087C68.7249 25.7424 68.6258 25.6926 68.5101 25.6428C67.9646 25.2944 67.4522 25.1117 66.9399 24.9458Z" fill="#E0234E"/>
</g>
<defs>
<filter id="filter0_d_3_553" x="0" y="0" width="112" height="112" filterUnits="userSpaceOnUse" color-interpolation-filters="sRGB">
<feFlood flood-opacity="0" result="BackgroundImageFix"/>
<feColorMatrix in="SourceAlpha" type="matrix" values="0 0 0 0 0 0 0 0 0 0 0 0 0 0 0 0 0 0 127 0" result="hardAlpha"/>
<feOffset/>
<feGaussianBlur stdDeviation="12"/>
<feComposite in2="hardAlpha" operator="out"/>
<feColorMatrix type="matrix" values="0 0 0 0 0.878431 0 0 0 0 0.137255 0 0 0 0 0.305882 0 0 0 0.3 0"/>
<feBlend mode="normal" in2="BackgroundImageFix" result="effect1_dropShadow_3_553"/>
<feBlend mode="normal" in="SourceGraphic" in2="effect1_dropShadow_3_553" result="shape"/>
</filter>
</defs>
</svg>
