<svg width="102" height="108" viewBox="0 0 102 108" fill="none" xmlns="http://www.w3.org/2000/svg">
<g filter="url(#filter0_d_3_574)">
<path d="M50.8188 83.8524C50.0038 83.8524 49.2442 83.6339 48.5389 83.2514L41.3192 78.9367C40.2329 78.3358 40.7766 78.1173 41.1022 78.0081C42.5671 77.5164 42.8384 77.4072 44.3587 76.5334C44.5215 76.4242 44.7385 76.4789 44.9013 76.5881L50.4378 79.9198C50.6548 80.029 50.9261 80.029 51.0889 79.9198L72.7478 67.3028C72.9636 67.1935 73.0745 66.9751 73.0745 66.7022V41.5227C73.0745 41.2498 72.9636 41.0314 72.7478 40.9221L51.0889 28.3599C50.8719 28.2506 50.6006 28.2506 50.4378 28.3599L28.7801 40.9221C28.5631 41.0314 28.4546 41.3043 28.4546 41.5227V66.7022C28.4546 66.9206 28.5631 67.1935 28.7801 67.3028L34.6964 70.7439C37.8987 72.3823 39.9074 70.4707 39.9074 68.559V43.7076C39.9074 43.38 40.1787 43.0523 40.5596 43.0523H43.3279C43.6534 43.0523 43.979 43.3252 43.979 43.7076V68.559C43.979 72.8741 41.6448 75.3864 37.5732 75.3864C36.3253 75.3864 35.3487 75.3864 32.5792 74.0211L26.88 70.7439C25.4693 69.9245 24.6 68.3953 24.6 66.7565V41.5776C24.6 39.9388 25.4693 38.4096 26.88 37.5902L48.5389 24.9735C49.8953 24.2088 51.7411 24.2088 53.0976 24.9735L74.7565 37.5902C76.1671 38.4096 77.0352 39.9388 77.0352 41.5776V66.7565C77.0352 68.3953 76.1671 69.9245 74.7565 70.7439L53.0976 83.3606C52.4465 83.6339 51.6326 83.8524 50.8188 83.8524Z" fill="#5FA04E"/>
<path d="M57.5501 66.5378C48.0494 66.5378 46.0949 62.1683 46.0949 58.4542C46.0949 58.1266 46.3662 57.7988 46.746 57.7988H49.5685C49.8953 57.7988 50.1665 58.0174 50.1665 58.345C50.6006 61.2397 51.8485 62.6601 57.6032 62.6601C62.1631 62.6601 64.1175 61.6222 64.1175 59.1644C64.1175 57.7444 63.5726 56.7066 56.4626 55.9964C50.5463 55.3955 46.8545 54.0847 46.8545 49.3328C46.8545 44.9089 50.5463 42.287 56.7339 42.287C63.6834 42.287 67.1028 44.6904 67.5368 49.9338C67.5368 50.0977 67.4826 50.2614 67.3752 50.4254C67.2644 50.5346 67.1028 50.6439 66.9376 50.6439H64.0609C63.792 50.6439 63.5195 50.4254 63.4652 50.1522C62.813 47.1482 61.1299 46.1652 56.6797 46.1652C51.6857 46.1652 51.0889 47.9128 51.0889 49.2236C51.0889 50.8075 51.7942 51.2992 58.5255 52.1731C65.2014 53.0469 68.3507 54.3032 68.3507 59.0003C68.3507 63.8067 64.3876 66.5378 57.5501 66.5378Z" fill="#5FA04E"/>
</g>
<defs>
<filter id="filter0_d_3_574" x="0.600006" y="0.399994" width="100.435" height="107.452" filterUnits="userSpaceOnUse" color-interpolation-filters="sRGB">
<feFlood flood-opacity="0" result="BackgroundImageFix"/>
<feColorMatrix in="SourceAlpha" type="matrix" values="0 0 0 0 0 0 0 0 0 0 0 0 0 0 0 0 0 0 127 0" result="hardAlpha"/>
<feOffset/>
<feGaussianBlur stdDeviation="12"/>
<feComposite in2="hardAlpha" operator="out"/>
<feColorMatrix type="matrix" values="0 0 0 0 0.372549 0 0 0 0 0.627451 0 0 0 0 0.305882 0 0 0 0.3 0"/>
<feBlend mode="normal" in2="BackgroundImageFix" result="effect1_dropShadow_3_574"/>
<feBlend mode="normal" in="SourceGraphic" in2="effect1_dropShadow_3_574" result="shape"/>
</filter>
</defs>
</svg>
