<svg width="103" height="105" viewBox="0 0 103 105" fill="none" xmlns="http://www.w3.org/2000/svg">
<g filter="url(#filter0_d_3_586)">
<path d="M75.8993 58.5349C69.2021 59.9155 68.7404 57.6481 68.7404 57.6481C75.8124 47.1566 78.7656 33.8355 76.2147 30.5761C69.257 21.6846 57.2113 25.8904 57.0101 26.0001L56.9416 26.0092C55.6204 25.7349 54.1393 25.5704 52.4753 25.5429C49.4444 25.4926 47.145 26.3384 45.4033 27.6595C45.4033 27.6595 23.913 18.8046 24.9141 38.7955C25.129 43.0469 31.0079 70.9692 38.025 62.5349C40.5896 59.4492 43.0673 56.8435 43.0673 56.8435C44.297 57.6618 45.7736 58.0778 47.3141 57.9269L47.433 57.8264C47.3964 58.2104 47.4147 58.5852 47.4787 59.0286C45.673 61.0492 46.2033 61.4012 42.5873 62.1464C38.9301 62.9006 41.0787 64.2401 42.4821 64.5921C44.1827 65.0172 48.1141 65.6206 50.7747 61.8995L50.6696 62.3246C51.3781 62.8915 51.8764 66.0138 51.7941 68.8435C51.7119 71.6732 51.657 73.6161 52.2147 75.1338C52.7724 76.6515 53.3301 80.0664 58.0799 79.0469C62.0479 78.1966 64.105 75.9932 64.393 72.3178C64.5941 69.7029 65.0559 70.0915 65.0833 67.7555L65.4536 66.6492C65.8787 63.1064 65.5221 61.9635 67.9679 62.4938L68.5621 62.5441C70.3633 62.6264 72.7176 62.2561 74.0981 61.6115C77.065 60.2355 78.8341 57.9269 75.8993 58.5349Z" fill="#336791"/>
<path d="M50.2353 60.5418C50.249 60.0847 50.6284 59.7235 51.0856 59.7372C51.5427 59.7509 51.9039 60.1304 51.8902 60.5875C51.7942 63.9841 51.8124 67.3898 51.9359 70.1144C52.0502 72.5692 52.2467 74.4161 52.521 75.1018C52.8136 75.8287 53.2661 76.9029 54.1347 77.6298C54.9804 78.3429 56.2833 78.7772 58.3587 78.3338C60.1736 77.9452 61.3942 77.3921 62.2079 76.5464C63.0124 75.7098 63.4696 74.5258 63.753 72.8709C63.9633 71.6641 64.2513 69.5567 64.5119 67.4584C64.841 64.8344 65.1427 62.1829 65.2067 61.3281C65.2387 60.8709 65.6364 60.5281 66.0936 60.5647C66.5507 60.5967 66.8936 60.9944 66.857 61.4515C66.793 62.2835 66.4913 64.9669 66.1484 67.6687C65.8742 69.8355 65.5816 71.9841 65.3804 73.1498C65.0376 75.1292 64.457 76.5875 63.3919 77.6938C62.3313 78.7955 60.8456 79.4904 58.6924 79.9521C56.0182 80.5235 54.2536 79.8972 53.0604 78.8915C51.8856 77.9041 51.3279 76.5967 50.9759 75.7144C50.6284 74.8504 50.3953 72.8115 50.2719 70.1829C50.153 67.4355 50.1393 63.9841 50.2353 60.5418Z" fill="white"/>
<path d="M45.673 26.7452C46.0982 26.9144 46.3039 27.3944 46.1347 27.8195C45.9656 28.2447 45.4856 28.4504 45.0604 28.2812C45.0056 28.2584 24.7542 19.9841 25.6913 38.6721C25.8056 40.9807 27.6342 50.4252 30.4136 57.0127C31.2913 59.0881 32.2559 60.8618 33.2799 61.9955C34.1347 62.9464 35.0079 63.4035 35.849 63.1018C36.3153 62.9327 36.8136 62.5532 37.3393 61.9224C39.913 58.8275 42.2536 56.3818 42.2627 56.3772C42.5782 56.0481 43.0993 56.0344 43.4284 56.3498C43.7576 56.6652 43.7713 57.1864 43.4559 57.5155C43.4513 57.5201 41.1656 59.9018 38.6102 62.9784C37.8833 63.8561 37.1427 64.4001 36.3976 64.6652C34.8159 65.2275 33.3622 64.5692 32.0456 63.1064C30.8936 61.8309 29.833 59.8972 28.8913 57.6527C26.0342 50.8915 24.1553 41.1452 24.0364 38.7498C22.9713 17.4652 45.609 26.7178 45.673 26.7452Z" fill="white"/>
<path d="M57.417 26.6172L56.1873 25.2732C56.2879 25.2366 56.3885 25.2046 56.489 25.1772C56.7587 25.0904 57.0513 25.0035 57.3667 24.9121C57.8285 24.7749 58.505 24.5966 59.3325 24.4366C63.4605 23.6366 71.5153 23.2024 76.8227 29.9864C78.3222 31.9018 78.1987 36.6424 76.649 42.2561C75.2776 47.2252 72.8045 52.9532 69.385 58.0275C69.129 58.4069 68.6125 58.5075 68.233 58.2515C67.8536 57.9955 67.753 57.4789 68.009 57.0995C71.3279 52.1761 73.7233 46.6218 75.0536 41.8126C76.4707 36.6835 76.6947 32.5006 75.5199 31.0012C70.7565 24.9166 63.4102 25.3281 59.6387 26.0641C58.8662 26.2149 58.249 26.3749 57.8285 26.4984L57.417 26.6172Z" fill="white"/>
<path d="M69.481 57.3098C69.4902 57.3327 69.4947 57.3555 69.4993 57.3784C69.4993 57.3829 69.7827 58.8595 75.6844 57.6435C76.521 57.4698 77.1153 57.5064 77.4993 57.6938C77.9976 57.9315 78.2124 58.3292 78.1804 58.8412C78.1622 59.1521 78.0159 59.4858 77.7736 59.8195C77.2159 60.5829 75.9404 61.5704 74.3907 62.2881C73.2296 62.8275 71.4604 63.1887 69.8376 63.2801C68.8822 63.3349 67.9679 63.2984 67.241 63.1521C66.3267 62.9692 65.6319 62.5898 65.3439 61.9727C65.2662 61.8081 65.2204 61.6298 65.2113 61.4378C65.0284 58.2287 66.5919 57.6664 67.6844 57.3555C67.5702 57.1909 67.4147 56.9944 67.241 56.7795C66.6879 56.0892 65.9793 55.2024 65.417 53.8447C65.3302 53.6389 65.0787 53.1818 64.7404 52.5784C63.3096 50.0138 60.4936 44.9578 61.0467 41.5064C61.4399 39.0424 63.3187 37.4058 68.0136 37.8949L67.9679 37.7578C67.7439 37.1224 67.3873 36.2904 66.8707 35.3578C64.8227 31.6275 60.3564 26.4252 52.425 26.2972C40.3244 26.1007 40.7222 41.3601 40.7222 41.4012C40.7313 41.8584 40.3656 42.2332 39.9084 42.2424C39.4513 42.2515 39.0764 41.8858 39.0673 41.4287C39.0673 41.3784 38.6193 24.4184 52.4479 24.6424C61.1793 24.7841 66.0799 30.4801 68.3199 34.5578C68.8776 35.5727 69.2753 36.4961 69.5267 37.2138C69.8102 38.0184 69.9153 38.6492 69.8696 38.9281C69.8056 39.3395 69.577 39.5955 69.1839 39.6732L68.8867 39.6778C64.5804 38.9875 62.953 40.0435 62.6787 41.7624C62.217 44.6561 64.8502 49.3738 66.185 51.7738C66.5462 52.4229 66.8204 52.9167 66.9439 53.2184C67.4193 54.3658 68.041 55.1429 68.5256 55.7555C68.9782 56.3087 69.3347 56.7567 69.481 57.3098ZM76.0182 59.2618C71.6433 60.1669 69.6044 59.5041 68.6673 58.7909C68.5393 58.8321 68.4022 58.8687 68.2559 58.9098C67.6707 59.0744 66.761 59.3304 66.857 61.2961C66.9256 61.3692 67.1816 61.4469 67.5564 61.5247C68.1553 61.6435 68.9233 61.6709 69.7416 61.6252C71.1724 61.5429 72.713 61.2367 73.6959 60.7795C74.7062 60.3087 75.5519 59.7418 76.073 59.2481L76.0182 59.2618Z" fill="white"/>
<path d="M48.0456 59.5041C47.7073 59.8835 47.4285 60.2355 47.1907 60.5372C46.1759 61.8264 45.8605 62.2287 42.7107 62.8778C42.1439 62.9967 41.7599 63.1109 41.5222 63.2252C41.8147 63.4355 42.2536 63.6092 42.6376 63.7052C43.4147 63.9018 44.7039 64.1349 46.0845 63.9018C47.4285 63.6732 48.8776 62.9829 50.0525 61.3372C50.089 61.2824 50.121 61.2229 50.1485 61.1635C50.2673 60.8755 50.2399 60.5144 50.121 60.1715C49.993 59.8058 49.7599 59.4858 49.4902 59.2892C49.4262 59.2435 49.3622 59.2069 49.2936 59.1795L49.2525 59.1612C49.0833 59.0927 48.8959 59.0195 48.7359 59.0332C48.5622 59.0515 48.3427 59.1704 48.0456 59.5041ZM45.8879 59.5087C46.1119 59.2252 46.3725 58.8961 46.7656 58.4527C46.7976 58.4115 46.8342 58.3704 46.8707 58.3338C47.4787 57.6755 48.0593 57.4287 48.5942 57.3829C49.1245 57.3372 49.5359 57.4881 49.8833 57.6344C49.897 57.6389 49.9107 57.6435 49.929 57.6527C50.1073 57.7258 50.281 57.8264 50.4502 57.9452C50.9942 58.3338 51.4422 58.9509 51.6845 59.6229C51.9313 60.3224 51.9725 61.1041 51.6799 61.7989C51.6067 61.9727 51.5153 62.1372 51.401 62.2972C49.9199 64.3727 48.073 65.2412 46.3633 65.5338C44.6856 65.8218 43.1587 65.5429 42.2353 65.3144C41.5633 65.1452 40.7313 64.7704 40.2422 64.3132C39.9542 64.0435 39.7576 63.7235 39.7027 63.3669C39.6387 62.9418 39.7667 62.5304 40.1553 62.1647C40.5302 61.8127 41.225 61.4927 42.3725 61.2549C44.9279 60.7292 45.1565 60.4412 45.8879 59.5087Z" fill="white"/>
<path d="M48.1324 58.7864C48.201 59.2389 47.8902 59.6641 47.4376 59.7281C46.985 59.7921 46.5599 59.4858 46.4959 59.0332C46.4776 58.9235 46.4684 58.8138 46.4593 58.6995C46.185 58.6904 45.9153 58.6721 45.6502 58.6309C43.8764 58.3841 42.2719 57.4881 41.065 56.1624C39.8719 54.8549 39.0673 53.1269 38.8799 51.1978C38.8113 50.5121 38.825 49.7989 38.9256 49.0812C39.3324 46.1829 39.177 43.5909 39.0993 42.2469C39.0764 41.8812 39.0627 41.6069 39.0627 41.3966C39.0673 40.8526 40.4342 39.6549 42.2353 38.9144C43.049 38.5806 43.9587 38.3018 44.8593 38.1646C45.8102 38.0229 46.7702 38.0366 47.6342 38.3064C48.9873 38.7315 50.0616 39.7326 50.473 41.6481C51.9587 48.5098 50.6284 51.4584 49.5907 53.7669C49.4124 54.1646 49.2433 54.5395 49.1153 54.8778C49.1107 54.9006 49.1016 54.9189 49.0924 54.9418C48.6582 56.1121 49.2936 54.3978 48.9644 55.2709C48.4479 56.6789 47.9953 57.8858 48.1324 58.7864ZM46.6376 57.0492C46.8159 56.3132 47.1084 55.5361 47.4193 54.6995C47.6662 54.0412 47.0216 55.7646 47.5382 54.3704C47.5473 54.3475 47.5564 54.3246 47.5656 54.3018C47.7256 53.8766 47.8993 53.4972 48.0776 53.0949C49.0193 51.0058 50.217 48.3361 48.8502 42.0092C48.585 40.7795 47.9404 40.1486 47.1359 39.8972C46.5324 39.7098 45.8239 39.7052 45.097 39.8149C44.3199 39.9338 43.5427 40.1715 42.8479 40.4549C41.6273 40.9532 40.7039 41.3738 40.7039 41.4104C40.7039 41.5292 40.7176 41.7989 40.7404 42.1601C40.8227 43.5544 40.9827 46.2561 40.5576 49.3189C40.4753 49.9178 40.4616 50.4984 40.5164 51.0561C40.6673 52.6104 41.3164 54.0046 42.281 55.0606C43.2319 56.1029 44.489 56.8115 45.8696 57.0035C46.1256 57.0309 46.3816 57.0492 46.6376 57.0492Z" fill="white"/>
<path d="M45.289 41.2869C45.2524 41.5566 45.7873 42.2835 46.4821 42.3795C47.177 42.4755 47.7759 41.9086 47.8124 41.6389C47.849 41.3692 47.3141 41.0675 46.6193 40.9715C45.9244 40.8755 45.3256 41.0172 45.289 41.2869Z" fill="white"/>
<path d="M45.5633 41.3235C45.5542 41.3829 45.6502 41.5384 45.8102 41.7075C45.9884 41.8949 46.2399 42.0641 46.5187 42.1052H46.5233C46.7976 42.1418 47.0536 42.0504 47.2456 41.9178C47.4239 41.7989 47.5336 41.6709 47.5473 41.5978C47.5473 41.5841 47.4787 41.5429 47.3644 41.4789C47.177 41.3738 46.9027 41.2869 46.5873 41.2412H46.5782C46.2673 41.2001 45.9793 41.2092 45.7736 41.2595C45.6456 41.2915 45.5633 41.3144 45.5633 41.3235ZM45.4124 42.0869C45.1427 41.8035 44.9919 41.4652 45.0193 41.2549V41.2458C45.0559 40.9852 45.289 40.8069 45.6456 40.7201C45.9153 40.6561 46.2719 40.6424 46.6513 40.6926C46.6559 40.6926 46.6604 40.6926 46.665 40.6926C47.049 40.7475 47.3919 40.8572 47.6342 40.9944C47.9542 41.1726 48.1324 41.4149 48.0959 41.6709C48.0684 41.8721 47.8627 42.1646 47.5564 42.3704C47.2684 42.5669 46.8753 42.7086 46.4502 42.6492H46.4456C46.025 42.5944 45.6639 42.3521 45.4124 42.0869Z" fill="white"/>
<path d="M66.5187 40.7338C66.5553 41.0035 66.0204 41.7304 65.3256 41.8264C64.6262 41.9224 64.0319 41.3555 63.9953 41.0858C63.9587 40.8161 64.4936 40.5144 65.193 40.4184C65.8833 40.3224 66.4776 40.4641 66.5187 40.7338Z" fill="white"/>
<path d="M66.6513 40.7155C66.6742 40.8892 66.537 41.1864 66.2947 41.4424C66.0616 41.6892 65.7233 41.9132 65.3393 41.9635H65.3347C64.9507 42.0138 64.5942 41.8858 64.329 41.7075C64.0547 41.5246 63.8764 41.2732 63.849 41.1041C63.8216 40.9075 63.9724 40.7155 64.2422 40.5646C64.4707 40.4366 64.7953 40.3315 65.161 40.2812C65.5267 40.2309 65.8696 40.2446 66.1256 40.3041C66.4273 40.3726 66.6239 40.5144 66.6513 40.7155ZM66.0936 41.2504C66.281 41.0538 66.3907 40.8526 66.377 40.7521C66.3679 40.6789 66.249 40.6149 66.0662 40.5692C65.8422 40.5144 65.5359 40.5052 65.2022 40.5509C64.873 40.5966 64.5804 40.6926 64.3793 40.8024C64.2147 40.8938 64.1187 40.9898 64.1279 41.0629C64.1416 41.1635 64.2787 41.3326 64.489 41.4744C64.7039 41.6206 64.9964 41.7258 65.3073 41.6846H65.3119C65.6182 41.6435 65.897 41.4561 66.0936 41.2504Z" fill="white"/>
<path d="M68.1827 38.8961C68.1599 38.4389 68.5119 38.0504 68.969 38.0275C69.4262 38.0046 69.8147 38.3566 69.8376 38.8138C69.9061 40.0938 69.7507 41.1086 69.5862 42.1738C69.4627 42.9692 69.3347 43.8012 69.3073 44.7292C69.2799 45.6115 69.3942 46.5898 69.5176 47.5955C69.8376 50.2424 70.1759 53.0766 68.2102 56.0069C67.9542 56.3864 67.4421 56.4869 67.0627 56.2355C66.6833 55.9795 66.5827 55.4675 66.8341 55.0881C68.4524 52.6698 68.1507 50.1509 67.8673 47.7921C67.7393 46.7406 67.6159 45.7166 67.6524 44.6835C67.6844 43.6138 67.817 42.7589 67.945 41.9315C68.1004 40.9349 68.2422 39.9932 68.1827 38.8961Z" fill="white"/>
</g>
<defs>
<filter id="filter0_d_3_586" x="0" y="0" width="102.184" height="104.169" filterUnits="userSpaceOnUse" color-interpolation-filters="sRGB">
<feFlood flood-opacity="0" result="BackgroundImageFix"/>
<feColorMatrix in="SourceAlpha" type="matrix" values="0 0 0 0 0 0 0 0 0 0 0 0 0 0 0 0 0 0 127 0" result="hardAlpha"/>
<feOffset/>
<feGaussianBlur stdDeviation="12"/>
<feComposite in2="hardAlpha" operator="out"/>
<feColorMatrix type="matrix" values="0 0 0 0 0.2 0 0 0 0 0.403922 0 0 0 0 0.568627 0 0 0 0.3 0"/>
<feBlend mode="normal" in2="BackgroundImageFix" result="effect1_dropShadow_3_586"/>
<feBlend mode="normal" in="SourceGraphic" in2="effect1_dropShadow_3_586" result="shape"/>
</filter>
</defs>
</svg>
