<svg width="112" height="98" viewBox="0 0 112 98" fill="none" xmlns="http://www.w3.org/2000/svg">
<g filter="url(#filter0_d_3_601)">
<path d="M86.9589 44.7872C85.3897 43.7504 81.2671 43.3083 78.2699 44.1003C78.1087 41.1695 76.5689 38.6995 73.7519 36.5458L72.7099 35.859L72.0149 36.8893C70.6495 38.9238 70.074 41.6358 70.2769 44.1013C70.4381 45.6202 70.9757 47.3271 72.0149 48.5658C68.1132 50.7874 64.5178 50.283 48.5924 50.283H24.0055C23.9335 53.8131 24.5119 60.6026 28.9104 66.13C29.3959 66.7405 29.9287 67.3315 30.5071 67.9002C34.0836 71.4154 39.4872 73.9935 47.5674 74C59.8936 74.0112 70.4552 67.4702 76.8799 51.6567C78.9943 51.6911 84.5743 52.028 87.305 46.8487C87.3714 46.7612 88 45.475 88 45.475L86.9589 44.7881V44.7872ZM40.0513 41.1444H33.1373V47.9311H40.0513V41.1444ZM48.984 41.1444H42.07V47.9311H48.984V41.1444ZM57.9166 41.1444H51.0026V47.9311H57.9166V41.1444ZM66.8493 41.1444H59.9353V47.9311H66.8493V41.1444ZM31.1206 41.1444H24.2046V47.9311H31.1187V41.1444H31.1206ZM40.0532 32.5717H33.1392V39.3584H40.0532V32.5717ZM48.9859 32.5717H42.0719V39.3584H48.9859V32.5717ZM57.9185 32.5717H51.0045V39.3584H57.9185V32.5717ZM57.9157 24H51.0017V30.7867H57.9157V24Z" fill="#1D63ED"/>
</g>
<defs>
<filter id="filter0_d_3_601" x="0" y="0" width="112" height="98" filterUnits="userSpaceOnUse" color-interpolation-filters="sRGB">
<feFlood flood-opacity="0" result="BackgroundImageFix"/>
<feColorMatrix in="SourceAlpha" type="matrix" values="0 0 0 0 0 0 0 0 0 0 0 0 0 0 0 0 0 0 127 0" result="hardAlpha"/>
<feOffset/>
<feGaussianBlur stdDeviation="12"/>
<feComposite in2="hardAlpha" operator="out"/>
<feColorMatrix type="matrix" values="0 0 0 0 0.113725 0 0 0 0 0.388235 0 0 0 0 0.929412 0 0 0 0.3 0"/>
<feBlend mode="normal" in2="BackgroundImageFix" result="effect1_dropShadow_3_601"/>
<feBlend mode="normal" in="SourceGraphic" in2="effect1_dropShadow_3_601" result="shape"/>
</filter>
</defs>
</svg>
